# xmcd CD database file
#
# Track frame offsets:
#	150
#	59850
#	85212
#	125462
#	177022
#	198570
#	222260
#	233215
#	250827
#	317670
#
# Disc length: 4579 seconds
#
# Revision: 0
# Processed by: cddbd v1.4PL0 Copyright (c) Steve Scherf et al.
# Submitted via: CDex 1.50Beta3
#
DISCID=9011e10a
DTITLE=Mark Murphy - Just Jazz
DYEAR=1993
DGENRE=Jazz
TTITLE0=Stolen Moments
TTITLE1=Parker's Mood
TTITLE2=Along Some Betty
TTITLE3=Vera Cruz
TTITLE4=Going To Chicago
TTITLE5=Bolero De Sata
TTITLE6=Charleston Alley
TTITLE7=I'll Remember Clifford
TTITLE8=Prism
TTITLE9=Body and Soul
EXTD=YEAR: 1993
EXTT0=
EXTT1=
EXTT2=
EXTT3=
EXTT4=
EXTT5=
EXTT6=
EXTT7=
EXTT8=
EXTT9=
PLAYORDER=
